#!OML:ASF H:\Terrain\Patient Classification 1\Animal2\Wednesday\Animal2.ASF
:FULLY-SPECIFIED
:DEGREES
2690
root 21.2993 17.7055 -16.7305 180.544 -182.399 -178.747
lowerback 1.06541 -1.13435 2.98125
upperback -12.0369 -1.06802 1.94767
thorax -13.7129 -0.697377 0.616154
lowerneck 0.611504 15.2838 19.4141
upperneck 9.6607 23.7814 -23.5725
head 8.19245 11.5094 -8.34904
rclavicle -2.18663e-014 7.15625e-015
rhumerus -0.631739 -29.3179 -0.813303
rradius 48.4463
rwrist -39.4657
rhand -16.0105 20.3983
rfingers 7.12502
rthumb 10.19 -9.33494
lclavicle -2.18663e-014 7.15625e-015
lhumerus -14.1519 -16.6844 15.6717
lradius 61.1228
lwrist 95.5976
lhand -15.8944 13.5883
lfingers 7.12502
lthumb 10.302 43.316
rfemur -2.7419 -7.14297 19.0444
rtibia 24.5079
rfoot -27.5567 -10.3369
rtoes 34.2967
lfemur -13.2874 0.310719 -20.6216
ltibia 27.1518
lfoot -16.2229 -12.4429
ltoes -16.517
2691
root 21.2986 17.7036 -16.7341 180.455 -183.027 -178.739
lowerback 1.02189 -1.0239 3.09097
upperback -11.7085 -0.917458 1.94572
thorax -13.2892 -0.632659 0.52078
lowerneck -0.878146 15.5143 19.1365
upperneck 9.98137 23.867 -23.137
head 8.4811 11.4318 -8.01103
rclavicle -8.34896e-015 -5.56597e-015
rhumerus -0.894862 -29.9484 -1.01911
rradius 48.5269
rwrist -39.9001
rhand -15.9494 20.4702
rfingers 7.12502
rthumb 10.249 -9.26008
lclavicle -8.34896e-015 -5.56597e-015
lhumerus -14.4692 -16.3201 16.5361
lradius 61.0747
lwrist 95.4506
lhand -15.8193 13.8809
lfingers 7.12502
lthumb 10.3745 43.605
rfemur -2.62294 -7.42667 19.0402
rtibia 24.5456
rfoot -27.4711 -10.7125
rtoes 34.2703
lfemur -13.2403 0.266044 -20.6398
ltibia 27.0752
lfoot -16.2419 -12.9852
ltoes -17.3094
2692
root 21.2978 17.7039 -16.7408 180.475 -183.568 -178.684
lowerback 0.995325 -0.899048 3.21562
upperback -11.6558 -0.740407 1.91449
thorax -13.2097 -0.561143 0.392583
lowerneck -1.50397 15.4916 19.2749
upperneck 10.1836 23.7633 -23.085
head 8.64661 11.3386 -7.98236
rclavicle 3.85642e-014 -4.77083e-014
rhumerus -1.2395 -29.9768 -1.20786
rradius 48.6045
rwrist -40.1115
rhand -16.0759 20.5559
rfingers 7.12502
rthumb 10.1269 -9.18044
lclavicle 3.85642e-014 -4.77083e-014
lhumerus -15.0525 -16.1045 17.405
lradius 61.0633
lwrist 95.3696
lhand -15.5622 14.1744
lfingers 7.12502
lthumb 10.6225 43.886
rfemur -2.63781 -7.55068 19.0286
rtibia 24.5994
rfoot -27.4551 -11.1491
rtoes 34.2848
lfemur -13.3768 0.416075 -20.7043
ltibia 27.0213
lfoot -15.7314 -13.9997
ltoes -15.1274
2693
root 21.2955 17.7034 -16.7499 180.518 -184.12 -178.52
lowerback 1.00694 -0.791014 3.22393
upperback -11.7231 -0.593004 1.85264
thorax -13.2956 -0.495023 0.303857
lowerneck -1.40095 15.3638 19.4223
upperneck 9.97356 23.5336 -23.0507
head 8.51967 11.2544 -8.04665
rclavicle 1.55052e-014 1.51076e-014
rhumerus -1.58325 -29.7209 -1.3742
rradius 48.6319
rwrist -40.2799
rhand -16.4407 20.2889
rfingers 7.12502
rthumb 9.77497 -9.46425
lclavicle 1.55052e-014 1.51076e-014
lhumerus -15.688 -15.8154 18.2418
lradius 61.03
lwrist 95.3165
lhand -15.3655 14.5922
lfingers 7.12502
lthumb 10.8122 44.2939
rfemur -2.63949 -7.52461 18.9422
rtibia 24.6415
rfoot -27.6112 -11.4512
rtoes 35.0213
lfemur -13.5505 0.473733 -20.8941
ltibia 26.9921
lfoot -15.4054 -14.6365
ltoes -14.2306
2694
root 21.2918 17.7013 -16.7582 180.484 -184.732 -178.58
lowerback 1.02676 -0.771486 3.49958
upperback -11.7399 -0.543093 1.81329
thorax -13.3349 -0.50272 0.102112
lowerneck -1.25758 15.2621 19.6099
upperneck 9.68913 23.3146 -22.9495
head 8.35876 11.1825 -8.09267
rclavicle -7.95139e-016 1.59028e-014
rhumerus -1.773 -29.5777 -1.86033
rradius 48.6221
rwrist -40.5945
rhand -16.8007 20.0253
rfingers 7.12502
rthumb 9.4276 -9.74385
lclavicle -7.95139e-016 1.59028e-014
lhumerus -16.4028 -15.3058 18.8519
lradius 61.018
lwrist 95.3599
lhand -15.0192 15.0293
lfingers 7.12502
lthumb 11.1462 44.7132
rfemur -2.55423 -7.61013 19.0886
rtibia 24.6872
rfoot -27.759 -11.6835
rtoes 35.6496
lfemur -13.6042 0.31731 -20.8348
ltibia 26.9498
lfoot -15.5325 -14.8233
ltoes -15.6538
2695
root 21.2852 17.6983 -16.7655 180.434 -185.383 -178.586
lowerback 1.06088 -0.796156 3.6852
upperback -11.7383 -0.558463 1.79254
thorax -13.3604 -0.530582 -0.0213418
lowerneck -1.39919 15.2243 19.8223
upperneck 9.67291 23.2311 -22.9836
head 8.39183 11.1406 -8.13956
rclavicle -2.62396e-014 1.90833e-014
rhumerus -1.89656 -29.3218 -2.38265
rradius 48.5897
rwrist -41.1437
rhand -16.9729 19.9114
rfingers 7.12502
rthumb 9.26145 -9.86524
lclavicle -2.62396e-014 1.90833e-014
lhumerus -17.2128 -14.7745 19.336
lradius 61.0802
lwrist 95.7723
lhand -14.5799 14.9201
lfingers 7.12502
lthumb 11.5699 44.5807
rfemur -2.45564 -7.78599 19.1667
rtibia 24.7021
rfoot -27.816 -12.0248
rtoes 35.8977
lfemur -13.6425 0.202933 -20.8277
ltibia 26.9038
lfoot -15.271 -15.416
ltoes -14.5072
2696
root 21.2786 17.6977 -16.7697 180.424 -185.948 -178.422
lowerback 1.04957 -0.754878 3.65249
upperback -11.7942 -0.505894 1.73914
thorax -13.4186 -0.50525 -0.067316
lowerneck -1.31332 15.1195 19.9667
upperneck 9.53101 23.0693 -23.0383
head 8.31916 11.0796 -8.21918
rclavicle 2.0276e-014 4.77083e-015
rhumerus -2.22553 -28.8486 -2.65567
rradius 48.6076
rwrist -41.643
rhand -16.9515 19.7359
rfingers 7.12502
rthumb 9.28209 -10.0398
lclavicle 2.0276e-014 4.77083e-015
lhumerus -17.9413 -14.256 19.821
lradius 61.1598
lwrist 96.1528
lhand -14.3566 15.1804
lfingers 7.12502
lthumb 11.7853 44.8288
rfemur -2.34437 -8.04883 19.0279
rtibia 24.6244
rfoot -27.8395 -12.3273
rtoes 35.6749
lfemur -13.7119 0.168204 -21.0033
ltibia 26.8972
lfoot -14.684 -16.2987
ltoes -11.3557
2697
root 21.2715 17.7026 -16.772 180.442 -186.39 -178.325
lowerback 1.00826 -0.690384 3.68712
upperback -11.899 -0.414754 1.69945
thorax -13.5174 -0.468649 -0.139779
lowerneck -0.9298 14.9552 19.9414
upperneck 9.14822 22.7801 -22.87
head 8.03108 10.9887 -8.2459
rclavicle 1.19271e-014 2.38542e-015
rhumerus -2.56381 -28.4695 -3.05326
rradius 48.6657
rwrist -41.7769
rhand -16.841 19.6166
rfingers 7.12502
rthumb 9.38881 -10.1543
lclavicle 1.19271e-014 2.38542e-015
lhumerus -18.723 -13.6364 20.2375
lradius 61.2418
lwrist 96.191
lhand -14.2577 15.5381
lfingers 7.12502
lthumb 11.8806 45.1811
rfemur -2.23924 -8.21637 18.9754
rtibia 24.5164
rfoot -27.9214 -12.513
rtoes 35.7742
lfemur -13.778 0.16342 -21.0817
ltibia 26.887
lfoot -14.196 -17.0862
ltoes -8.84082
2698
root 21.2626 17.7088 -16.7754 180.459 -186.925 -178.42
lowerback 0.971641 -0.651753 3.8981
upperback -11.9277 -0.339455 1.72446
thorax -13.5319 -0.452837 -0.239068
lowerneck -1.11602 14.9099 19.7368
upperneck 9.12434 22.6203 -22.5438
head 7.94704 10.9066 -8.12134
rclavicle -1.59028e-014 -3.18055e-015
rhumerus -2.81226 -28.2479 -3.44236
rradius 48.6221
rwrist -41.8761
rhand -16.9755 19.7095
rfingers 7.12502
rthumb 9.25894 -10.0672
lclavicle -1.59028e-014 -3.18055e-015
lhumerus -19.3833 -13.0635 20.547
lradius 61.3355
lwrist 96.3002
lhand -14.3219 15.1142
lfingers 7.12502
lthumb 11.8187 44.7607
rfemur -2.13278 -8.24479 19.1916
rtibia 24.4097
rfoot -28.0522 -12.8093
rtoes 36.341
lfemur -13.8953 0.0713629 -20.943
ltibia 26.8752
lfoot -13.7387 -17.7916
ltoes -6.99288
